<?xml version="1.0" encoding="utf-8"?>
<!-- Generator: Adobe Illustrator 21.1.0, SVG Export Plug-In . SVG Version: 6.00 Build 0)  -->
<svg version="1.1" id="圖層_1" xmlns="http://www.w3.org/2000/svg" xmlns:xlink="http://www.w3.org/1999/xlink" x="0px" y="0px"
	 viewBox="0 0 45 45" style="enable-background:new 0 0 45 45;" xml:space="preserve">
<style type="text/css">
	.st0{fill:#FFFFFF;}
</style>
<title>icon_AIot</title>
<path class="st0" d="M26.8,22.1c-0.2-0.2-0.4-0.4-0.6-0.5c-0.2-0.1-0.5-0.2-0.8-0.2c-0.3,0-0.5,0.1-0.8,0.2
	c-0.2,0.1-0.4,0.3-0.6,0.5c-0.2,0.2-0.3,0.5-0.4,0.7c-0.1,0.3-0.1,0.6-0.1,0.9c0,0.3,0,0.6,0.1,0.9c0.1,0.3,0.2,0.5,0.4,0.7
	c0.2,0.2,0.4,0.4,0.6,0.5c0.2,0.1,0.5,0.2,0.8,0.2c0.3,0,0.5-0.1,0.8-0.2c0.2-0.1,0.4-0.3,0.6-0.5c0.2-0.2,0.3-0.5,0.4-0.7
	c0.1-0.3,0.1-0.6,0.1-0.9c0-0.3,0-0.6-0.1-0.9C27.1,22.6,27,22.4,26.8,22.1z"/>
<polygon class="st0" points="9.7,23.1 12.5,23.1 11.1,19.6 "/>
<path class="st0" d="M22.5,0C10.1,0,0,10.1,0,22.5S10.1,45,22.5,45S45,34.9,45,22.5S34.9,0,22.5,0z M14.2,27.2L13,24.4H9.2l-0.6,1.4
	l-0.6,1.4H6.2l3.9-9.7h2.1l3.9,9.7H14.2z M20,27.2h-1.8v-9.7H20V27.2z M29,25.2c-0.3,0.9-1,1.6-1.9,2c-1,0.4-2.1,0.4-3.1,0
	c-0.9-0.3-1.6-1.1-1.9-2c-0.3-0.9-0.3-1.9,0-2.8c0.3-0.9,1-1.6,1.9-2c1-0.4,2.1-0.4,3.1,0c0.4,0.2,0.8,0.4,1.2,0.8
	c0.3,0.3,0.6,0.7,0.7,1.2C29.3,23.2,29.3,24.2,29,25.2L29,25.2z M35.5,19v8.3h-1.8V19h-3.5v-1.4h8.6V19L35.5,19z"/>
</svg>
